<svg xmlns="http://www.w3.org/2000/svg" version="1.1" xmlnsXlink="http://www.w3.org/1999/xlink" xmlnssvgjs="http://svgjs.dev/svgjs" width="1000" height="1204" viewBox="0 0 1000 1204"><g transform="matrix(1,0,0,1,-1.1972147540476499,0.48744976598504763)"><svg viewBox="0 0 205 247" data-background-color="#ffffff" preserveAspectRatio="xMidYMid meet" height="1204" width="1000" xmlns="http://www.w3.org/2000/svg" xmlnsXlink="http://www.w3.org/1999/xlink"><defs></defs><g id="tight-bounds" transform="matrix(1,0,0,1,0.24542922566763536,-0.10000007657666288)"><svg viewBox="0 0 204.5091374464724 247.2" height="247.2" width="204.5091374464724"><g><svg viewBox="0 0 395.52 478.0839879371683" height="247.2" width="204.5091374464724"><g transform="matrix(1,0,0,1,0,278.70013268981444)"><svg viewBox="0 0 395.52 199.38385524735384" height="199.38385524735384" width="395.52"><g><svg viewBox="0 0 395.52 199.38385524735384" height="199.38385524735384" width="395.52"><g><svg viewBox="0 0 395.52 145.15991752577318" height="145.15991752577318" width="395.52"><g transform="matrix(1,0,0,1,0,0)"><svg width="395.52" viewBox="3.6500000953674316 -35.349998474121094 96.98999786376953 35.599998474121094" height="145.15991752577318" data-palette-color="#31c48d"><path d="M8.8-14.9L8.8-4.25 15.4-4.25Q21.75-4.25 21.75-9.5L21.75-9.5Q21.75-12.05 20.03-13.48 18.3-14.9 14.9-14.9L14.9-14.9 8.8-14.9ZM14.3-29.45L8.8-29.45 8.8-19.1 13.45-19.1Q17.2-19.1 19.03-20.63 20.85-22.15 20.85-24.6L20.85-24.6Q20.85-26.75 19.23-28.1 17.6-29.45 14.3-29.45L14.3-29.45ZM3.65 0L3.65-33.7 14.7-33.7Q20-33.7 23.05-31.23 26.1-28.75 26.1-24.7L26.1-24.7Q26.1-21.9 24.53-19.8 22.95-17.7 20.5-17.1L20.5-17.1Q23.25-16.6 25.13-14.55 27-12.5 27-9.05L27-9.05Q27-5.05 24.28-2.53 21.55 0 16.6 0L16.6 0 3.65 0ZM36-14.5L48.25-14.5 48.25-15.4Q48.15-18.25 46.7-19.93 45.25-21.6 42.55-21.6L42.55-21.6Q40.05-21.6 38.25-19.78 36.45-17.95 36-14.5L36-14.5ZM51.4-5.75L51.4-5.75 51.4-1.35Q48.6 0.25 44 0.25L44 0.25Q38.1 0.25 34.6-3.3 31.1-6.85 31.1-12.6L31.1-12.6Q31.1-18.7 34.3-22.18 37.5-25.65 42.45-25.65L42.45-25.65Q47.3-25.65 50.15-22.63 53-19.6 53-13.9L53-13.9Q53-12.35 52.7-10.65L52.7-10.65 36.05-10.65Q36.55-7.35 38.85-5.6 41.15-3.85 44.65-3.85L44.65-3.85Q48.7-3.85 51.4-5.75ZM73.2-24.5L73.2-24.5 73.2-20.05Q70.75-21.5 66.9-21.5L66.9-21.5Q65.15-21.5 64.12-20.7 63.09-19.9 63.09-18.6L63.09-18.6Q63.09-18.25 63.17-17.93 63.25-17.6 63.45-17.28 63.65-16.95 63.82-16.73 64-16.5 64.39-16.25 64.8-16 65.02-15.83 65.25-15.65 65.77-15.4 66.3-15.15 66.55-15.03 66.8-14.9 67.42-14.63 68.05-14.35 68.3-14.25L68.3-14.25Q71.25-12.95 72.92-11.33 74.59-9.7 74.59-7L74.59-7Q74.59-3.6 72.2-1.68 69.8 0.25 65.7 0.25L65.7 0.25Q61.2 0.25 58.2-1.25L58.2-1.25 58.2-5.9Q61.7-3.75 65.45-3.75L65.45-3.75Q67.4-3.75 68.47-4.55 69.55-5.35 69.55-6.65L69.55-6.65Q69.55-7.75 68.7-8.63 67.84-9.5 66.97-9.93 66.09-10.35 64-11.25L64-11.25Q58.05-13.7 58.05-18.45L58.05-18.45Q58.05-21.8 60.55-23.7 63.05-25.6 66.8-25.6L66.8-25.6Q70.9-25.6 73.2-24.5ZM79.69-35.35L84.59-35.35 84.59-21Q86.74-25.7 92.44-25.7L92.44-25.7Q96.14-25.7 98.39-23.4 100.64-21.1 100.64-17L100.64-17 100.64 0 95.74 0 95.74-16Q95.74-18.6 94.42-20.03 93.09-21.45 90.94-21.45L90.94-21.45Q88.44-21.45 86.52-19.55 84.59-17.65 84.59-13.75L84.59-13.75 84.59 0 79.69 0 79.69-35.35Z" opacity="1" transform="matrix(1,0,0,1,0,0)" fill="#31c48d" class="undefined-text-0" data-fill-palette-color="primary" id="text-0"></path></svg></g></svg></g><g transform="matrix(1,0,0,1,75.54432,179.4286902155876)"><svg viewBox="0 0 244.43135999999998 19.955165031766203" height="19.955165031766203" width="244.43135999999998"><g transform="matrix(1,0,0,1,0,0)"><svg width="244.43135999999998" viewBox="1 -39.599998474121094 629.5399780273438 51.39999771118164" height="19.955165031766203" data-palette-color="#31c48d"><path d="M1 0L1-8.2 3.5-8.2 3.5-30.7 1-30.7 1-38.9 22.95-38.9Q29.4-38.9 32.8-36.13 36.2-33.35 36.2-27.15L36.2-27.15Q36.2-20.95 32.8-18.18 29.4-15.4 22.95-15.4L22.95-15.4 17.5-15.4 17.5-8.2 22.3-8.2 22.3 0 1 0ZM17.5-22.5L19.2-22.5Q22.1-22.5 22.1-25.7L22.1-25.7 22.1-27.5Q22.1-29.15 21.38-29.93 20.65-30.7 19.2-30.7L19.2-30.7 17.5-30.7 17.5-22.5ZM51.7 0.7Q44.6 0.7 40.6-3.03 36.6-6.75 36.6-13.9L36.6-13.9Q36.6-21.05 40.6-24.78 44.6-28.5 51.7-28.5L51.7-28.5Q58.9-28.5 62.85-24.73 66.8-20.95 66.8-13.9L66.8-13.9Q66.8-6.75 62.8-3.03 58.8 0.7 51.7 0.7L51.7 0.7ZM51.7-8.2Q53.15-8.2 53.87-8.97 54.6-9.75 54.6-11.4L54.6-11.4 54.6-16.4Q54.6-18.05 53.87-18.82 53.15-19.6 51.7-19.6L51.7-19.6Q50.25-19.6 49.52-18.82 48.8-18.05 48.8-16.4L48.8-16.4 48.8-11.4Q48.8-9.75 49.52-8.97 50.25-8.2 51.7-8.2L51.7-8.2ZM80.55 0.7Q74.25 0.7 68.4-1.3L68.4-1.3 68.4-8.7 76.5-8.7 76.5-8.2Q76.5-5.8 79.55-5.8L79.55-5.8Q82.25-5.8 82.25-7.65L82.25-7.65Q82.25-8.65 81.47-9.15 80.7-9.65 78.75-10L78.75-10 76.25-10.45Q68.4-11.85 68.4-19.35L68.4-19.35Q68.4-23.7 71.7-26.1 75-28.5 80.59-28.5L80.59-28.5Q86.84-28.5 91.15-26.4L91.15-26.4 91.15-19.45 83.55-19.45 83.55-19.95Q83.55-20.95 82.87-21.48 82.2-22 80.9-22L80.9-22Q78.4-22 78.4-20.4L78.4-20.4Q78.4-19.55 79.09-19.1 79.8-18.65 81.65-18.25L81.65-18.25 84.5-17.7Q88.95-16.85 90.84-14.55 92.75-12.25 92.75-8.65L92.75-8.65Q92.75-4.1 89.57-1.7 86.4 0.7 80.55 0.7L80.55 0.7ZM106.69 0.7Q101.39 0.7 98.72-1.88 96.04-4.45 96.04-10.55L96.04-10.55 96.04-19.6 93.84-19.6 93.84-27.8Q95.74-27.8 96.69-28.78 97.64-29.75 97.64-31.45L97.64-31.45 97.64-33.7 108.24-33.7 108.24-27.8 114.99-27.8 114.99-19.6 108.24-19.6 108.24-11.4Q108.24-9.75 108.97-8.97 109.69-8.2 111.14-8.2L111.14-8.2Q113.04-8.2 115.29-8.65L115.29-8.65 115.29-0.8Q113.89-0.25 111.52 0.23 109.14 0.7 106.69 0.7L106.69 0.7ZM153.34 0.7Q150.79 0.7 148.81-0.55 146.84-1.8 145.59-3.4L145.59-3.4 145.59 0 131.89 0 131.89-8.2 134.09-8.2 134.09-30.7 131.89-30.7 131.89-38.9 145.59-38.9 145.59-24.4Q146.84-26 148.81-27.25 150.79-28.5 153.34-28.5L153.34-28.5Q158.44-28.5 161.01-24.7 163.59-20.9 163.59-13.9L163.59-13.9Q163.59-6.9 161.01-3.1 158.44 0.7 153.34 0.7L153.34 0.7ZM148.49-8.2Q149.94-8.2 150.66-8.97 151.39-9.75 151.39-11.4L151.39-11.4 151.39-16.4Q151.39-18.05 150.66-18.82 149.94-19.6 148.49-19.6L148.49-19.6Q147.04-19.6 146.31-18.82 145.59-18.05 145.59-16.4L145.59-16.4 145.59-11.4Q145.59-9.75 146.31-8.97 147.04-8.2 148.49-8.2L148.49-8.2ZM180.89 0.05L164.99 0.05 164.99-8.2 167.19-8.2 167.19-30.7 164.99-30.7 164.99-38.9 178.69-38.9 178.69-8.2 180.89-8.2 180.89 0.05ZM197.38 0.7Q190.28 0.7 186.28-3.03 182.28-6.75 182.28-13.9L182.28-13.9Q182.28-21.05 186.28-24.78 190.28-28.5 197.38-28.5L197.38-28.5Q204.58-28.5 208.53-24.73 212.48-20.95 212.48-13.9L212.48-13.9Q212.48-6.75 208.48-3.03 204.48 0.7 197.38 0.7L197.38 0.7ZM197.38-8.2Q198.83-8.2 199.56-8.97 200.28-9.75 200.28-11.4L200.28-11.4 200.28-16.4Q200.28-18.05 199.56-18.82 198.83-19.6 197.38-19.6L197.38-19.6Q195.93-19.6 195.21-18.82 194.48-18.05 194.48-16.4L194.48-16.4 194.48-11.4Q194.48-9.75 195.21-8.97 195.93-8.2 197.38-8.2L197.38-8.2ZM228.73 11.8Q225.13 11.8 221.86 11.3 218.58 10.8 216.78 10.15L216.78 10.15 216.78 1.95Q222.08 2.9 226.28 2.9L226.28 2.9Q229.13 2.9 230.41 2.02 231.68 1.15 231.68-1.25L231.68-1.25 231.68-3.4Q230.43-1.8 228.46-0.55 226.48 0.7 223.93 0.7L223.93 0.7Q218.83 0.7 216.25-3.1 213.68-6.9 213.68-13.9L213.68-13.9Q213.68-20.9 216.25-24.7 218.83-28.5 223.93-28.5L223.93-28.5Q226.48-28.5 228.46-27.25 230.43-26 231.68-24.4L231.68-24.4 231.68-27.8 245.38-27.8 245.38-19.6 243.18-19.6 243.18-2Q243.18 5.25 239.58 8.53 235.98 11.8 228.73 11.8L228.73 11.8ZM228.78-8.2Q230.23-8.2 230.96-8.97 231.68-9.75 231.68-11.4L231.68-11.4 231.68-16.4Q231.68-18.05 230.96-18.82 230.23-19.6 228.78-19.6L228.78-19.6Q227.33-19.6 226.61-18.82 225.88-18.05 225.88-16.4L225.88-16.4 225.88-11.4Q225.88-9.75 226.61-8.97 227.33-8.2 228.78-8.2L228.78-8.2ZM252.18 8.05L247.88 8.05 250.48 0 247.93 0 247.93-8.2 255.73-8.2 255.73 0 252.18 8.05ZM322.32-8.2L324.52-8.2 324.52 0 308.72 0 308.72-8.2 310.82-8.2 310.82-16.4Q310.82-18.05 310.12-18.82 309.42-19.6 308.02-19.6L308.02-19.6Q305.02-19.6 305.02-16.4L305.02-16.4 305.02-8.2 307.12-8.2 307.12 0 291.42 0 291.42-8.2 293.52-8.2 293.52-16.4Q293.52-18.05 292.82-18.82 292.12-19.6 290.72-19.6L290.72-19.6Q287.72-19.6 287.72-16.4L287.72-16.4 287.72-8.2 289.82-8.2 289.82 0 274.02 0 274.02-8.2 276.22-8.2 276.22-19.6 274.02-19.6 274.02-27.8 287.72-27.8 287.72-23.9Q291.32-28.5 296.72-28.5L296.72-28.5Q299.77-28.5 301.7-27.08 303.62-25.65 304.42-23.05L304.42-23.05Q306.22-25.65 308.55-27.05 310.87-28.45 314.02-28.45L314.02-28.45Q318.17-28.45 320.25-25.85 322.32-23.25 322.32-18.7L322.32-18.7 322.32-8.2ZM353.07-8.2L355.27-8.2 355.27 0 342.07 0 342.07-3.4Q340.97-1.8 339-0.55 337.02 0.7 334.17 0.7L334.17 0.7Q330.42 0.7 328.27-1.3 326.12-3.3 326.12-6.95L326.12-6.95Q326.12-16.4 342.17-16.65L342.17-16.65Q342.02-18.35 340.87-18.98 339.72-19.6 336.97-19.6L336.97-19.6Q334.72-19.6 332.15-19.13 329.57-18.65 327.42-17.85L327.42-17.85 327.42-27.05Q330.07-27.7 333.17-28.1 336.27-28.5 339.22-28.5L339.22-28.5Q346.67-28.5 349.87-25.8 353.07-23.1 353.07-17.45L353.07-17.45 353.07-8.2ZM342.07-11.4L342.07-11.7Q339.82-11.7 338.6-11.1 337.37-10.5 337.37-9.1L337.37-9.1Q337.37-8.25 337.9-7.73 338.42-7.2 339.37-7.2L339.37-7.2Q340.67-7.2 341.37-8.3 342.07-9.4 342.07-11.4L342.07-11.4ZM382.22-14.85L387.02-8.2 389.17-8.2 389.17 0 376.92 0 371.77-9.6 370.57-9.6 370.57 0 356.87 0 356.87-8.2 359.07-8.2 359.07-30.7 356.87-30.7 356.87-38.9 370.57-38.9 370.57-18.6 371.77-18.6 377.97-27.8 388.52-27.8 388.52-19.6 386.47-19.6 382.22-14.85ZM405.67 0.7Q398.56 0.7 394.56-3.03 390.56-6.75 390.56-13.9L390.56-13.9Q390.56-21.05 394.56-24.78 398.56-28.5 405.67-28.5L405.67-28.5Q412.72-28.5 415.84-24.83 418.97-21.15 418.97-15.7L418.97-15.7 418.97-12.1 402.76-12.1 402.76-11.8Q402.76-9.95 403.87-9.08 404.97-8.2 407.51-8.2L407.51-8.2Q410.56-8.2 413.31-8.65 416.06-9.1 418.12-9.8L418.12-9.8 418.12-1.8Q416.37-0.85 412.99-0.08 409.62 0.7 405.67 0.7L405.67 0.7ZM402.76-17.6L408.56-17.6 408.56-18.2Q408.56-19.9 407.84-20.65 407.12-21.4 405.67-21.4L405.67-21.4Q404.22-21.4 403.49-20.63 402.76-19.85 402.76-18.2L402.76-18.2 402.76-17.6ZM435.46 0L435.46-8.2 437.66-8.2 437.66-19.6 435.46-19.6 435.46-27.8 437.76-27.8Q437.76-33.9 440.74-36.75 443.71-39.6 449.41-39.6L449.41-39.6Q452.16-39.6 454.33-39.2 456.51-38.8 457.51-38.3L457.51-38.3 457.51-30.45Q454.86-30.7 452.61-30.7L452.61-30.7Q450.66-30.7 449.91-30.05 449.16-29.4 449.16-27.8L449.16-27.8 453.06-27.8 453.06-19.6 449.16-19.6 449.16-8.2 453.06-8.2 453.06 0 435.46 0ZM476.01-28.5Q477.01-28.5 477.91-28.3 478.81-28.1 479.41-27.8L479.41-27.8 479.41-18.25Q477.36-19.1 475.01-19.1L475.01-19.1Q471.86-19.1 470.16-17.45 468.46-15.8 468.46-12.55L468.46-12.55 468.46-8.2 472.96-8.2 472.96 0 454.76 0 454.76-8.2 456.96-8.2 456.96-19.6 454.76-19.6 454.76-27.8 468.46-27.8 468.46-24.15Q469.86-26.25 471.66-27.38 473.46-28.5 476.01-28.5L476.01-28.5ZM493.61-30.55L483.41-30.55 483.41-38.9 493.61-38.9 493.61-30.55ZM496.91 0L481 0 481-8.2 483.21-8.2 483.21-19.6 481-19.6 481-27.8 494.71-27.8 494.71-8.2 496.91-8.2 496.91 0ZM513.2 0.7Q506.1 0.7 502.1-3.03 498.1-6.75 498.1-13.9L498.1-13.9Q498.1-21.05 502.1-24.78 506.1-28.5 513.2-28.5L513.2-28.5Q520.25-28.5 523.38-24.83 526.5-21.15 526.5-15.7L526.5-15.7 526.5-12.1 510.3-12.1 510.3-11.8Q510.3-9.95 511.4-9.08 512.5-8.2 515.05-8.2L515.05-8.2Q518.1-8.2 520.85-8.65 523.6-9.1 525.65-9.8L525.65-9.8 525.65-1.8Q523.9-0.85 520.53-0.08 517.15 0.7 513.2 0.7L513.2 0.7ZM510.3-17.6L516.1-17.6 516.1-18.2Q516.1-19.9 515.38-20.65 514.65-21.4 513.2-21.4L513.2-21.4Q511.75-21.4 511.03-20.63 510.3-19.85 510.3-18.2L510.3-18.2 510.3-17.6ZM559-8.2L561.2-8.2 561.2 0 545.4 0 545.4-8.2 547.5-8.2 547.5-16.4Q547.5-18.05 546.8-18.82 546.1-19.6 544.7-19.6L544.7-19.6Q541.7-19.6 541.7-16.4L541.7-16.4 541.7-8.2 543.8-8.2 543.8 0 528 0 528-8.2 530.2-8.2 530.2-19.6 528-19.6 528-27.8 541.7-27.8 541.7-23.9Q545.3-28.5 550.7-28.5L550.7-28.5Q554.85-28.5 556.93-25.9 559-23.3 559-18.75L559-18.75 559-8.2ZM572.65 0.7Q567.55 0.7 564.97-3.1 562.4-6.9 562.4-13.9L562.4-13.9Q562.4-20.9 564.97-24.7 567.55-28.5 572.65-28.5L572.65-28.5Q575.2-28.5 577.17-27.25 579.15-26 580.4-24.4L580.4-24.4 580.4-30.7 577.45-30.7 577.45-38.9 591.9-38.9 591.9-8.2 594.1-8.2 594.1 0 580.4 0 580.4-3.4Q579.15-1.8 577.17-0.55 575.2 0.7 572.65 0.7L572.65 0.7ZM577.5-8.2Q578.95-8.2 579.67-8.97 580.4-9.75 580.4-11.4L580.4-11.4 580.4-16.4Q580.4-18.05 579.67-18.82 578.95-19.6 577.5-19.6L577.5-19.6Q576.05-19.6 575.32-18.82 574.6-18.05 574.6-16.4L574.6-16.4 574.6-11.4Q574.6-9.75 575.32-8.97 576.05-8.2 577.5-8.2L577.5-8.2ZM607.84 0.7Q601.54 0.7 595.69-1.3L595.69-1.3 595.69-8.7 603.79-8.7 603.79-8.2Q603.79-5.8 606.84-5.8L606.84-5.8Q609.54-5.8 609.54-7.65L609.54-7.65Q609.54-8.65 608.77-9.15 607.99-9.65 606.04-10L606.04-10 603.54-10.45Q595.69-11.85 595.69-19.35L595.69-19.35Q595.69-23.7 598.99-26.1 602.29-28.5 607.89-28.5L607.89-28.5Q614.14-28.5 618.44-26.4L618.44-26.4 618.44-19.45 610.84-19.45 610.84-19.95Q610.84-20.95 610.17-21.48 609.49-22 608.19-22L608.19-22Q605.69-22 605.69-20.4L605.69-20.4Q605.69-19.55 606.39-19.1 607.09-18.65 608.94-18.25L608.94-18.25 611.79-17.7Q616.24-16.85 618.14-14.55 620.04-12.25 620.04-8.65L620.04-8.65Q620.04-4.1 616.87-1.7 613.69 0.7 607.84 0.7L607.84 0.7ZM630.54 0L622.74 0 622.74-8.2 630.54-8.2 630.54 0Z" opacity="1" transform="matrix(1,0,0,1,0,0)" fill="#31c48d" class="undefined-text-1" data-fill-palette-color="secondary" id="text-1"></path></svg></g></svg></g></svg></g></svg></g><g transform="matrix(1,0,0,1,75.54432,0)"><svg viewBox="0 0 244.43135999999998 244.43135999999998" height="244.43135999999998" width="244.43135999999998"><g><svg></svg></g><g id="icon-0"><svg viewBox="0 0 244.43135999999998 244.43135999999998" height="244.43135999999998" width="244.43135999999998"><g><path d="M73.329 244.431c-40.499 0-73.329-32.831-73.329-73.329v-97.773c0-40.499 32.831-73.329 73.329-73.329h97.773c40.499 0 73.329 32.831 73.329 73.329v97.773c0 40.499-32.831 73.329-73.329 73.329z" fill="#31c48d" data-fill-palette-color="accent"></path></g><g transform="matrix(1,0,0,1,84.3288192,74.40119679999076)"><svg viewBox="0 0 75.77372159999999 95.62896640001847" height="95.62896640001847" width="75.77372159999999"><g><svg xmlns="http://www.w3.org/2000/svg" xmlnsXlink="http://www.w3.org/1999/xlink" version="1.1" x="0" y="0" viewBox="-250.70001220703125 140.98709106445312 63.399993896484375 80.01290893554688" enable-background="new -269 131 100 100" xml:space="preserve" height="95.62896640001847" width="75.77372159999999" class="icon-x-0" data-fill-palette-color="quaternary" id="x-0"><path d="M-200.1 163.7l-1-0.8c-1.2-1-3.1-0.6-3.8 0.8-0.3 0.7-0.6 7.7-0.6 8.9 0 0.2 0 0.6 0 0.7 0 1-0.9 1.8-1.9 1.6-0.8-0.1-1.4-0.9-1.4-1.7-0.1-12-3.7-20.4-10.5-26.7-4.1-3.8-9-7.2-10.5-4.6-0.4 0.7 0.2 2.2 0.9 4.1 1.4 4.3-2.9 11.2-9 18.1-5.7 6.5-12.8 14.5-12.8 26.4 0 16 15.1 30.5 31.7 30.5 16.6 0 31.7-14.5 31.7-30.5C-187.3 180.4-192.1 170.4-200.1 163.7zM-219 215.2c-7.2 0-13.1-5.9-13.1-13.1 0-3.6 1.4-6.8 3.8-9.2l7.2-8.6c1.1-1.3 3.2-1.3 4.3 0l7.2 8.6c2.3 2.4 3.8 5.6 3.8 9.2C-205.9 209.3-211.8 215.2-219 215.2z" fill="#ffffff" data-fill-palette-color="quaternary"></path></svg></g></svg></g></svg></g></svg></g><g></g></svg></g></svg><rect width="204.5091374464724" height="247.2" fill="none" stroke="none" visibility="hidden"></rect></g></svg></g></svg>