<?xml version="1.0" standalone="no"?>
<!DOCTYPE svg PUBLIC "-//W3C//DTD SVG 20010904//EN"
 "http://www.w3.org/TR/2001/REC-SVG-20010904/DTD/svg10.dtd">
<svg version="1.0" xmlns="http://www.w3.org/2000/svg"
 width="660.000000pt" height="660.000000pt" viewBox="0 0 660.000000 660.000000"
 preserveAspectRatio="xMidYMid meet">
<metadata>
Created by potrace 1.14, written by Peter Selinger 2001-2017
</metadata>
<g transform="translate(0.000000,660.000000) scale(0.100000,-0.100000)"
fill="#000000" stroke="none">
<path d="M1820 6365 c-125 -21 -132 -23 -212 -44 -623 -168 -1122 -659 -1297
-1276 -16 -57 -29 -108 -36 -145 -29 -147 -30 -180 -30 -1580 0 -773 3 -1432
7 -1465 21 -165 65 -338 114 -452 8 -17 14 -34 14 -37 0 -12 86 -183 125 -246
50 -84 129 -193 180 -250 310 -349 687 -556 1139 -626 101 -16 233 -18 1481
-18 754 1 1402 4 1440 8 721 78 1334 572 1560 1260 56 170 80 291 90 466 5 87
6 2617 0 2703 -19 309 -125 624 -303 893 -60 92 -74 110 -147 193 -235 271
-541 465 -886 565 -48 13 -106 27 -130 31 -24 3 -60 11 -79 18 -54 18 -2927
20 -3030 2z"/>
</g>
</svg>
